<?xml version="1.0" encoding="iso-8859-1"?>
<!-- Uploaded to: SVG Repo, www.svgrepo.com, Generator: SVG Repo Mixer Tools -->
<svg height="800px" width="800px" version="1.1" id="Layer_1" xmlns="http://www.w3.org/2000/svg" xmlns:xlink="http://www.w3.org/1999/xlink" 
	 viewBox="0 0 512 512" xml:space="preserve">
<path style="fill:#F95428;" d="M495.304,297.74c0,9.461-0.557,19.033-1.67,28.383c0,0.223-0.11,0.223-0.11,0.445L395.019,300.3
	c0.111-0.89,0.111-1.67,0.111-2.56c0-76.689-62.442-139.13-139.13-139.13s-139.13,62.442-139.13,139.13v2.115l-98.504,26.49
	c0-0.111,0-0.111,0-0.223c-1.113-9.35-1.67-18.922-1.67-28.383C16.696,165.844,123.993,58.435,256,58.435
	S495.304,165.844,495.304,297.74z"/>
<path style="fill:#F5B420;" d="M428.522,297.74c0,2.894-0.111,5.677-0.223,8.459c0,0.223,0,0.223,0,0.334l-109.191,29.273
	c0.111-1.892,0.669-3.896,1.559-5.677c5.12-10.129,7.679-21.037,7.679-32.39c0-39.847-32.5-72.348-72.348-72.348
	s-72.348,32.501-72.348,72.348c0,11.353,2.56,22.261,7.679,32.39c1.114,2.226,1.671,4.563,1.671,6.901L83.922,307.757
	c-0.111-0.445-0.223-1.002-0.223-1.558c-0.111-2.783-0.223-5.565-0.223-8.459c0-95.165,77.357-172.522,172.522-172.522
	S428.522,202.574,428.522,297.74z"/>
<path style="fill:#EA3B18;" d="M495.304,297.74c0,9.461-0.557,19.033-1.67,28.383c0,0.223-0.11,0.223-0.11,0.445L395.019,300.3
	c0.111-0.89,0.111-1.67,0.111-2.56c0-76.689-62.442-139.13-139.13-139.13V58.435C388.007,58.435,495.304,165.844,495.304,297.74z"/>
<path style="fill:#F09C12;" d="M428.522,297.74c0,2.894-0.111,5.677-0.223,8.459c0,0.223,0,0.223,0,0.334l-109.191,29.273
	c0.111-1.892,0.669-3.896,1.559-5.677c5.12-10.129,7.679-21.037,7.679-32.39c0-39.847-32.5-72.348-72.348-72.348V125.218
	C351.165,125.218,428.522,202.574,428.522,297.74z"/>
<path style="fill:#E6563A;" d="M477.065,340.897c-0.663,0-1.326-0.038-1.989-0.119c-9.163-1.087-15.696-9.392-14.609-18.549
	c0.956-8.076,1.446-16.315,1.446-24.489c0-113.544-92.369-205.913-205.913-205.913S50.087,184.196,50.087,297.74
	c0,8.174,0.489,16.413,1.446,24.489c1.087,9.158-5.446,17.461-14.609,18.549c-8.968,1.12-17.446-5.446-18.543-14.603
	c-1.12-9.381-1.685-18.951-1.685-28.435C16.696,165.788,124.043,58.435,256,58.435S495.304,165.788,495.304,297.74
	c0,9.484-0.565,19.054-1.685,28.435C492.609,334.658,485.403,340.897,477.065,340.897z"/>
<path style="fill:#D9472B;" d="M461.913,297.74c0,8.174-0.489,16.413-1.446,24.489c-1.087,9.158,5.446,17.461,14.609,18.549
	c0.663,0.081,1.326,0.119,1.989,0.119c8.337,0,15.544-6.239,16.554-14.723c1.12-9.381,1.685-18.951,1.685-28.435
	c0-131.951-107.347-239.304-239.304-239.304v33.391C369.544,91.827,461.913,184.196,461.913,297.74z"/>
<path style="fill:#FFC033;" d="M411.652,322.169c-0.26,0-0.522-0.006-0.794-0.017c-9.206-0.43-16.326-8.244-15.891-17.457
	c0.109-2.31,0.162-4.625,0.162-6.957c0-76.718-62.413-139.13-139.13-139.13s-139.13,62.413-139.13,139.13
	c0,2.332,0.055,4.647,0.163,6.957c0.435,9.212-6.685,17.027-15.891,17.457c-9.424,0.326-17.033-6.696-17.457-15.902
	c-0.13-2.82-0.206-5.658-0.206-8.51c0-95.131,77.391-172.522,172.522-172.522s172.522,77.391,172.522,172.522
	c0,2.853-0.076,5.69-0.207,8.51C427.902,315.197,420.522,322.169,411.652,322.169z"/>
<path style="fill:#F9A926;" d="M395.13,297.74c0,2.332-0.055,4.647-0.162,6.957c-0.435,9.212,6.685,17.027,15.891,17.457
	c0.272,0.011,0.533,0.017,0.794,0.017c8.87,0,16.25-6.973,16.663-15.919c0.13-2.82,0.207-5.658,0.207-8.51
	c0-95.131-77.391-172.522-172.522-172.522v33.391C332.718,158.609,395.13,221.022,395.13,297.74z"/>
<path style="fill:#3AACE6;" d="M335.608,354.283c-2.522,0-5.087-0.577-7.49-1.788c-8.239-4.142-11.555-14.179-7.413-22.413
	c5.067-10.088,7.642-20.968,7.642-32.343c0-39.891-32.456-72.348-72.348-72.348s-72.348,32.456-72.348,72.348
	c0,11.375,2.576,22.255,7.641,32.343c4.142,8.233,0.826,18.272-7.413,22.413c-8.218,4.142-18.272,0.831-22.413-7.413
	c-7.434-14.783-11.206-30.708-11.206-47.343c0-58.305,47.435-105.739,105.739-105.739s105.739,47.435,105.739,105.739
	c0,16.636-3.772,32.56-11.206,47.342C347.598,350.913,341.718,354.283,335.608,354.283z"/>
<path style="fill:#2B9FD9;" d="M328.348,297.74c0,11.375-2.576,22.255-7.641,32.343c-4.142,8.233-0.826,18.272,7.413,22.413
	c2.402,1.212,4.968,1.788,7.49,1.788c6.108,0,11.989-3.369,14.924-9.202c7.434-14.782,11.206-30.707,11.206-47.342
	c0-58.305-47.435-105.739-105.739-105.739v33.391C295.891,225.392,328.348,257.848,328.348,297.74z"/>
<path style="fill:#FF9F19;" d="M445.076,322.065c-0.217,0-0.435-0.006-0.652-0.011c-9.217-0.358-16.402-8.114-16.043-17.331
	c0.087-2.315,0.141-4.647,0.141-6.983c0-95.131-77.391-172.522-172.522-172.522S83.478,202.609,83.478,297.74
	c0,2.337,0.055,4.668,0.141,6.983c0.358,9.217-6.826,16.973-16.043,17.331c-9.261,0.396-16.967-6.821-17.326-16.038
	c-0.109-2.749-0.164-5.505-0.164-8.277c0-113.544,92.369-205.913,205.913-205.913s205.913,92.369,205.913,205.913
	c0,2.771-0.055,5.527-0.163,8.278C461.402,315.006,454,322.065,445.076,322.065z"/>
<path style="fill:#F28618;" d="M428.522,297.74c0,2.337-0.055,4.668-0.141,6.983c-0.358,9.217,6.826,16.973,16.043,17.331
	c0.217,0.006,0.435,0.011,0.652,0.011c8.924,0,16.326-7.06,16.673-16.049c0.109-2.75,0.163-5.505,0.163-8.278
	c0-113.544-92.369-205.913-205.913-205.913v33.391C351.131,125.218,428.522,202.609,428.522,297.74z"/>
<path style="fill:#88CC2A;" d="M369.695,359.87c-2.076,0-4.185-0.386-6.217-1.207c-8.555-3.435-12.707-13.157-9.272-21.712
	c5.001-12.462,7.533-25.651,7.533-39.211c0-58.305-47.435-105.739-105.739-105.739S150.261,239.435,150.261,297.74
	c0,13.56,2.532,26.75,7.533,39.211c3.435,8.555-0.718,18.277-9.272,21.712c-8.51,3.403-18.283-0.707-21.707-9.277
	c-6.598-16.429-9.946-33.81-9.946-51.646c0-76.718,62.413-139.13,139.13-139.13s139.13,62.413,139.13,139.13
	c0,17.837-3.348,35.218-9.946,51.646C382.576,355.908,376.304,359.87,369.695,359.87z"/>
<path style="fill:#7FB335;" d="M361.739,297.74c0,13.56-2.532,26.75-7.533,39.211c-3.435,8.555,0.718,18.277,9.272,21.712
	c2.032,0.82,4.142,1.207,6.217,1.207c6.609,0,12.88-3.962,15.489-10.484c6.598-16.429,9.946-33.81,9.946-51.646
	c0-76.718-62.413-139.13-139.13-139.13v33.391C314.305,192.001,361.739,239.435,361.739,297.74z"/>
<path style="fill:#DAE1E6;" d="M428.522,286.609c-27.217,0-52.522,13.468-67.989,35.299c-41.263-10.266-82.272,21.455-82.272,64.875
	c0,36.826,29.956,66.783,66.783,66.783h83.478c46.032,0,83.478-37.446,83.478-83.478S474.554,286.609,428.522,286.609z"/>
<path style="fill:#EDF0F2;" d="M151.467,321.908c-15.468-21.831-40.772-35.299-67.989-35.299C37.446,286.609,0,324.055,0,370.087
	s37.446,83.478,83.478,83.478h83.478c36.826,0,66.783-29.956,66.783-66.783C233.739,343.433,192.802,311.625,151.467,321.908z"/>
</svg>